<?xml version="1.0" encoding="utf-8"?>
<svg viewBox="57.847 105.383 415.48 365.43" width="415.48" height="365.43" xmlns="http://www.w3.org/2000/svg">
  <g id="surface1" transform="matrix(1, 0, 0, 1, 57.84733200073242, -371.18701171875)">
    <path style="stroke: none; fill-rule: nonzero; fill-opacity: 1; fill: rgb(255, 255, 255);" d="M 202.585938 777.789062 C 191.542969 792.140625 180.785156 810.480469 170.988281 833.609375 L 204.644531 829.96875 L 205.121094 829.96875 L 209.433594 830.410156 C 208.523438 810.441406 206.101562 792.980469 202.585938 777.789062 "/>
    <path style="stroke: none; fill-rule: nonzero; fill-opacity: 1; fill: rgb(255, 255, 255);" d="M 254.101562 683.050781 C 247.472656 702.359375 230.367188 713.988281 215.902344 709.019531 C 201.4375 704.058594 195.089844 684.371094 201.722656 665.058594 C 208.351562 645.75 225.457031 634.121094 239.917969 639.078125 C 254.382812 644.050781 260.730469 663.738281 254.101562 683.050781 Z M 415.480469 711.820312 C 384.351562 696.25 379.398438 714.300781 405.929688 624.089844 C 330.230469 640.71875 345.792969 645.671875 332.699219 601.800781 L 284.589844 655.929688 C 273.273438 666.890625 269.382812 660.171875 275.394531 621.261719 L 289.191406 536.011719 L 261.601562 551.921875 C 248.867188 558.289062 248.511719 552.28125 207.828125 476.570312 L 207.652344 476.570312 C 166.972656 552.28125 166.617188 558.289062 153.882812 551.921875 L 126.292969 536.011719 L 140.085938 621.261719 C 146.101562 660.171875 142.210938 666.890625 130.886719 655.929688 L 82.777344 601.800781 C 69.691406 645.671875 85.257812 640.71875 9.550781 624.089844 C 36.082031 714.300781 31.132812 696.25 0 711.820312 L 105.421875 804.5 L 93.390625 842 L 167.890625 833.941406 C 172.800781 803.378906 183.359375 778.5 197.347656 759.039062 C 180.359375 707.96875 149.6875 689.019531 128.769531 688.121094 C 172.585938 716.929688 174.769531 749.398438 174.769531 749.398438 C 147.789062 755.769531 75.726562 742.128906 67.878906 656.960938 C 119.773438 639.128906 188.710938 672.890625 208.902344 744.96875 C 252.542969 698.421875 318.332031 693.5 357.453125 723.851562 C 322.507812 801.910156 249.898438 791.539062 226.421875 776.800781 C 226.421875 776.800781 238.984375 746.769531 289.75 733.671875 C 271.949219 728.429688 242.308594 734.140625 213.121094 765.339844 C 215.8125 784.851562 215.160156 806.640625 210.171875 830.488281 L 322.089844 842 L 310.0625 804.5 L 415.480469 711.820312 "/>
  </g>
</svg>