<?xml version="1.0" encoding="iso-8859-1"?>
<!-- Uploaded to: SVG Repo, www.svgrepo.com, Generator: SVG Repo Mixer Tools -->
<svg version="1.1" id="Layer_1" xmlns="http://www.w3.org/2000/svg" xmlns:xlink="http://www.w3.org/1999/xlink" 
	 viewBox="0 0 512 512" xml:space="preserve">
<path style="fill:#B169BF;" d="M503.172,88.276H8.828C3.953,88.276,0,92.228,0,97.103v317.793c0,4.875,3.953,8.828,8.828,8.828
	h494.345c4.875,0,8.828-3.953,8.828-8.828V97.103C512,92.228,508.047,88.276,503.172,88.276z M114.759,273.655
	c-14.626,0-26.483-11.857-26.483-26.483s11.857-26.483,26.483-26.483s26.483,11.857,26.483,26.483S129.385,273.655,114.759,273.655z
	 M158.897,397.241c-4.875,0-8.828-3.953-8.828-8.828s3.953-8.828,8.828-8.828c4.875,0,8.828,3.953,8.828,8.828
	S163.772,397.241,158.897,397.241z M203.034,388.414c-4.875,0-8.828-3.953-8.828-8.828s3.953-8.828,8.828-8.828
	s8.828,3.953,8.828,8.828S207.91,388.414,203.034,388.414z M256,379.586c-4.875,0-8.828-3.953-8.828-8.828
	c0-4.875,3.953-8.828,8.828-8.828s8.828,3.953,8.828,8.828C264.828,375.634,260.875,379.586,256,379.586z M308.966,388.414
	c-4.875,0-8.828-3.953-8.828-8.828s3.953-8.828,8.828-8.828s8.828,3.953,8.828,8.828S313.841,388.414,308.966,388.414z
	 M353.103,397.241c-4.875,0-8.828-3.953-8.828-8.828s3.953-8.828,8.828-8.828s8.828,3.953,8.828,8.828
	S357.978,397.241,353.103,397.241z M397.241,273.655c-14.626,0-26.483-11.857-26.483-26.483s11.857-26.483,26.483-26.483
	c14.626,0,26.483,11.857,26.483,26.483S411.868,273.655,397.241,273.655z"/>
<path style="fill:#844A8F;" d="M26.483,406.069c-4.875,0-8.828-3.953-8.828-8.828V88.276H8.828C3.953,88.276,0,92.228,0,97.103
	v317.793c0,4.875,3.953,8.828,8.828,8.828h494.345c4.875,0,8.828-3.953,8.828-8.828v-8.828H26.483z"/>
<path style="fill:#64666D;" d="M399.681,340.328c-1.495-2.99-4.552-4.879-7.895-4.879H120.214c-3.343,0-6.4,1.889-7.895,4.879
	l-41.698,83.396h370.759L399.681,340.328z M158.897,397.241c-4.875,0-8.828-3.953-8.828-8.828s3.953-8.828,8.828-8.828
	c4.875,0,8.828,3.953,8.828,8.828S163.772,397.241,158.897,397.241z M203.034,388.414c-4.875,0-8.828-3.953-8.828-8.828
	s3.953-8.828,8.828-8.828s8.828,3.953,8.828,8.828S207.91,388.414,203.034,388.414z M256,379.586c-4.875,0-8.828-3.953-8.828-8.828
	c0-4.875,3.953-8.828,8.828-8.828s8.828,3.953,8.828,8.828C264.828,375.634,260.875,379.586,256,379.586z M308.966,388.414
	c-4.875,0-8.828-3.953-8.828-8.828s3.953-8.828,8.828-8.828s8.828,3.953,8.828,8.828S313.841,388.414,308.966,388.414z
	 M353.103,397.241c-4.875,0-8.828-3.953-8.828-8.828s3.953-8.828,8.828-8.828s8.828,3.953,8.828,8.828
	S357.978,397.241,353.103,397.241z"/>
<polygon style="fill:#4E5058;" points="79.31,406.345 70.621,423.724 441.379,423.724 432.69,406.345 "/>
<path style="fill:#FD5E95;" d="M474.755,129.996l-33.376-41.72H70.621l-33.376,41.719c-1.252,1.566-1.934,3.51-1.934,5.515v182.283
	c0,4.875,3.953,8.828,8.828,8.828h423.724c4.875,0,8.828-3.953,8.828-8.828V135.51C476.69,133.506,476.008,131.561,474.755,129.996z
	 M114.759,273.655c-14.626,0-26.483-11.857-26.483-26.483s11.857-26.483,26.483-26.483s26.483,11.857,26.483,26.483
	S129.385,273.655,114.759,273.655z M397.241,273.655c-14.626,0-26.483-11.857-26.483-26.483s11.857-26.483,26.483-26.483
	c14.626,0,26.483,11.857,26.483,26.483S411.868,273.655,397.241,273.655z"/>
<path style="fill:#F9D84E;" d="M35.31,309.333v8.46c0,4.875,3.953,8.828,8.828,8.828h423.724c4.875,0,8.828-3.953,8.828-8.828v-8.46
	H35.31z"/>
<circle style="fill:#FFC20D;" cx="414.897" cy="150.069" r="26.483"/>
<circle style="fill:#FFE88A;" cx="414.897" cy="150.069" r="17.655"/>
<path style="fill:#D14D7B;" d="M130.682,172.294L104.2,128.156c-1.495-2.493-4.19-4.018-7.096-4.018s-5.601,1.525-7.096,4.018
	l-26.483,44.138c-2.351,3.919-1.08,9.003,2.838,11.354c3.922,2.353,9.004,1.08,11.354-2.838l2.886-4.81h33.001l2.886,4.81
	c2.504,4.172,8.245,5.271,12.119,2.321C131.918,180.609,132.821,175.859,130.682,172.294z M90.534,159.448l6.57-10.95l6.57,10.95
	H90.534z"/>
<g>
	<path style="fill:#FDB6CF;" d="M361.931,149.517H150.069c-4.57,0-8.276-3.705-8.276-8.276s3.705-8.276,8.276-8.276h211.862
		c4.57,0,8.276,3.705,8.276,8.276S366.502,149.517,361.931,149.517z"/>
	<path style="fill:#FDB6CF;" d="M361.931,184.828H150.069c-4.57,0-8.276-3.705-8.276-8.276s3.705-8.276,8.276-8.276h211.862
		c4.57,0,8.276,3.705,8.276,8.276S366.502,184.828,361.931,184.828z"/>
</g>
<path style="fill:#D14D7B;" d="M317.793,291.31H194.207c-4.875,0-8.828-3.953-8.828-8.828v-70.621c0-4.875,3.953-8.828,8.828-8.828
	h123.586c4.875,0,8.828,3.953,8.828,8.828v70.621C326.621,287.358,322.668,291.31,317.793,291.31z"/>
<rect x="203.034" y="220.69" style="fill:#D3D3D5;" width="105.931" height="52.966"/>
<g>
	<polygon style="fill:#BDBDC0;" points="203.034,220.69 203.034,273.655 211.862,273.655 264.828,220.69 	"/>
	<polygon style="fill:#BDBDC0;" points="293.517,220.69 240.552,273.655 285.057,273.655 308.966,249.747 308.966,220.69 	"/>
	<polygon style="fill:#BDBDC0;" points="299.034,273.655 308.966,273.655 308.966,263.724 	"/>
</g>
<path style="fill:#7A7C82;" d="M220.69,247.172c0,9.144-1.159,18.018-3.338,26.483h36.158c1.628-8.579,2.489-17.43,2.489-26.483
	c0-9.053-0.862-17.903-2.489-26.483h-36.158C219.531,229.154,220.69,238.028,220.69,247.172z"/>
<path style="fill:#909296;" d="M256,247.172c0-5.642-0.335-11.206-0.982-16.673l-36.117,36.117c-0.44,2.375-0.952,4.723-1.548,7.039
	h23.199l14.973-14.973C255.832,254.886,256,251.049,256,247.172z"/>
<path style="fill:#E9E9EA;" d="M114.759,194.207c-29.252,0-52.966,23.713-52.966,52.966s23.713,52.966,52.966,52.966
	s52.966-23.713,52.966-52.966S144.011,194.207,114.759,194.207z M114.759,273.655c-14.626,0-26.483-11.857-26.483-26.483
	s11.857-26.483,26.483-26.483s26.483,11.857,26.483,26.483S129.385,273.655,114.759,273.655z"/>
<path style="fill:#BDBDC0;" d="M114.759,211.862c-19.501,0-35.31,15.809-35.31,35.31s15.809,35.31,35.31,35.31
	s35.31-15.809,35.31-35.31S134.26,211.862,114.759,211.862z M114.759,273.655c-14.626,0-26.483-11.857-26.483-26.483
	s11.857-26.483,26.483-26.483s26.483,11.857,26.483,26.483S129.385,273.655,114.759,273.655z"/>
<path style="fill:#844A8F;" d="M114.759,220.69c-14.626,0-26.483,11.857-26.483,26.483s11.857,26.483,26.483,26.483
	s26.483-11.857,26.483-26.483S129.385,220.69,114.759,220.69z M119.172,264.249V256c0-2.438-1.976-4.414-4.414-4.414
	s-4.414,1.976-4.414,4.414v8.249c-6.197-1.598-11.064-6.465-12.663-12.663h8.249c2.438,0,4.414-1.976,4.414-4.414
	s-1.976-4.414-4.414-4.414h-8.249c1.598-6.197,6.465-11.064,12.663-12.663v8.249c0,2.438,1.976,4.414,4.414,4.414
	s4.414-1.976,4.414-4.414v-8.249c6.197,1.598,11.064,6.465,12.663,12.663h-8.249c-2.438,0-4.414,1.976-4.414,4.414
	s1.976,4.414,4.414,4.414h8.249C130.237,257.783,125.369,262.65,119.172,264.249z"/>
<path style="fill:#E9E9EA;" d="M397.241,194.207c-29.252,0-52.966,23.713-52.966,52.966s23.713,52.966,52.966,52.966
	c29.252,0,52.966-23.713,52.966-52.966S426.494,194.207,397.241,194.207z M397.241,273.655c-14.626,0-26.483-11.857-26.483-26.483
	s11.857-26.483,26.483-26.483c14.626,0,26.483,11.857,26.483,26.483S411.868,273.655,397.241,273.655z"/>
<path style="fill:#BDBDC0;" d="M397.241,211.862c-19.501,0-35.31,15.809-35.31,35.31s15.809,35.31,35.31,35.31
	c19.501,0,35.31-15.809,35.31-35.31S416.743,211.862,397.241,211.862z M397.241,273.655c-14.626,0-26.483-11.857-26.483-26.483
	s11.857-26.483,26.483-26.483c14.626,0,26.483,11.857,26.483,26.483S411.868,273.655,397.241,273.655z"/>
<path style="fill:#844A8F;" d="M397.241,220.69c-14.626,0-26.483,11.857-26.483,26.483s11.857,26.483,26.483,26.483
	c14.626,0,26.483-11.857,26.483-26.483S411.868,220.69,397.241,220.69z M401.655,264.249V256c0-2.438-1.976-4.414-4.414-4.414
	c-2.438,0-4.414,1.976-4.414,4.414v8.249c-6.197-1.598-11.064-6.465-12.663-12.663h8.249c2.438,0,4.414-1.976,4.414-4.414
	s-1.976-4.414-4.414-4.414h-8.249c1.598-6.197,6.465-11.064,12.663-12.663v8.249c0,2.438,1.976,4.414,4.414,4.414
	c2.438,0,4.414-1.976,4.414-4.414v-8.249c6.197,1.598,11.064,6.465,12.663,12.663h-8.249c-2.438,0-4.414,1.976-4.414,4.414
	s1.976,4.414,4.414,4.414h8.249C412.719,257.783,407.852,262.65,401.655,264.249z"/>
</svg>